# xmcd
# 
# Track frame offsets:
#     187
#     16382
#     34182
#     54195
#     68905
#     86487
#     106482
#     124342
#     144717
#     166467
#     191310
# 
# Disc length: 2851
# 
# Revision: 5
# Processed by: cddbd v1.5.2PL0 Copyright (c) Steve Scherf et al.
# Submitted via: BonkEnc v1.0
# 
DISCID=930b210b
DTITLE=Dianne Davidson - Breaking All The Rules
DYEAR=1988
DGENRE=Jazz/Blues
TTITLE0=Trouble Again
TTITLE1=What'm I Gonna Do?
TTITLE2=Song of Bernadette
TTITLE3=Built for Comfort
TTITLE4=Song for My Father
TTITLE5=So Lucky
TTITLE6=Keep My Love Light Burnin'
TTITLE7=Tonight I'll Dream That You Care
TTITLE8=Killer Without a Heart
TTITLE9=Everything to Me
TTITLE10=Heaven Bound
EXTD=On-time backup vocalist for Tracy Nelson's long overdue second foray into the spotlight.
EXTT0=\n
EXTT1=
EXTT2=
EXTT3=
EXTT4=
EXTT5=
EXTT6=
EXTT7=
EXTT8=
EXTT9=
EXTT10=
PLAYORDER=
